<svg width="142" height="40" viewBox="0 0 142 40" fill="none" xmlns="http://www.w3.org/2000/svg">
<rect width="40" height="40" rx="20" fill="#FF528C"/>
<path d="M9.065 15L7.50055 24H6.11773L7.68219 15H9.065ZM12.4752 17.6602L9.29352 20.6953L7.49469 22.2949L7.33063 21.0059L8.64313 19.6348L10.7056 17.6602H12.4752ZM9.99664 24L8.48492 20.9648L9.4693 20.0273L11.5142 24H9.99664ZM14.0345 17.6602L12.9329 24H11.5559L12.6575 17.6602H14.0345ZM12.8509 16.0195C12.847 15.793 12.9212 15.6074 13.0735 15.4629C13.2259 15.3184 13.4134 15.2441 13.636 15.2402C13.8509 15.2363 14.0345 15.3027 14.1868 15.4395C14.343 15.5723 14.4212 15.75 14.4212 15.9727C14.4251 16.1992 14.3489 16.3828 14.1927 16.5234C14.0403 16.6641 13.8548 16.7363 13.636 16.7402C13.4212 16.7441 13.2376 16.6816 13.0852 16.5527C12.9329 16.4199 12.8548 16.2422 12.8509 16.0195ZM17.6973 22.6055L19.0156 15H20.4043L18.8398 24H17.5977L17.6973 22.6055ZM13.9941 20.9473L14.0059 20.8242C14.0566 20.4336 14.1484 20.043 14.2813 19.6523C14.418 19.2617 14.6016 18.9043 14.832 18.5801C15.0664 18.2559 15.3516 17.998 15.6875 17.8066C16.0273 17.6152 16.4258 17.5254 16.8828 17.5371C17.2813 17.5488 17.6133 17.6523 17.8789 17.8477C18.1445 18.043 18.3516 18.2949 18.5 18.6035C18.6523 18.9121 18.7559 19.2461 18.8105 19.6055C18.8652 19.9609 18.8828 20.3086 18.8633 20.6484L18.8164 21.0469C18.7539 21.4062 18.6484 21.7695 18.5 22.1367C18.3516 22.5039 18.1582 22.8398 17.9199 23.1445C17.6855 23.4492 17.4043 23.6914 17.0762 23.8711C16.752 24.0508 16.3809 24.1348 15.9629 24.123C15.5449 24.1074 15.1992 24.002 14.9258 23.8066C14.6523 23.6074 14.4414 23.3516 14.293 23.0391C14.1445 22.7227 14.0488 22.3828 14.0059 22.0195C13.9629 21.6523 13.959 21.2949 13.9941 20.9473ZM15.4004 20.8125L15.3887 20.9355C15.3652 21.1387 15.3555 21.3555 15.3594 21.5859C15.3633 21.8164 15.3945 22.0371 15.4531 22.248C15.5156 22.4551 15.6191 22.627 15.7637 22.7637C15.9121 22.9004 16.1191 22.9746 16.3848 22.9863C16.6934 22.998 16.9668 22.9277 17.2051 22.7754C17.4473 22.623 17.6484 22.4238 17.8086 22.1777C17.9688 21.9316 18.082 21.6699 18.1484 21.3926L18.3125 20.3203C18.3242 20.125 18.3105 19.9316 18.2715 19.7402C18.2363 19.5488 18.1719 19.375 18.0781 19.2188C17.9844 19.0625 17.8594 18.9355 17.7031 18.8379C17.5508 18.7363 17.3652 18.6836 17.1465 18.6797C16.8574 18.668 16.6074 18.7266 16.3965 18.8555C16.1895 18.9844 16.0176 19.1562 15.8809 19.3711C15.748 19.5859 15.6426 19.8203 15.5645 20.0742C15.4863 20.3281 15.4316 20.5742 15.4004 20.8125ZM19.8366 20.9355L19.8542 20.8008C19.9011 20.3633 20.0085 19.9473 20.1765 19.5527C20.3445 19.1582 20.5671 18.8086 20.8445 18.5039C21.1257 18.1953 21.4558 17.9551 21.8347 17.7832C22.2175 17.6113 22.6433 17.5312 23.112 17.543C23.5652 17.5508 23.9538 17.6445 24.278 17.8242C24.6062 18.0039 24.8718 18.2441 25.0749 18.5449C25.282 18.8418 25.4265 19.1816 25.5085 19.5645C25.5905 19.9434 25.612 20.3398 25.573 20.7539L25.5613 20.8887C25.5105 21.3262 25.3991 21.7402 25.2273 22.1309C25.0593 22.5215 24.8347 22.8691 24.5534 23.1738C24.2761 23.4746 23.946 23.7109 23.5632 23.8828C23.1843 24.0508 22.7624 24.1289 22.2976 24.1172C21.8484 24.1094 21.4597 24.0176 21.1316 23.8418C20.8073 23.6621 20.5417 23.4238 20.3347 23.127C20.1316 22.8301 19.989 22.4941 19.907 22.1191C19.8249 21.7402 19.8015 21.3457 19.8366 20.9355ZM21.2253 20.8008L21.2136 20.9355C21.1941 21.1504 21.1921 21.377 21.2077 21.6152C21.2234 21.8535 21.2702 22.0762 21.3484 22.2832C21.4265 22.4902 21.5476 22.6602 21.7116 22.793C21.8757 22.9258 22.0945 22.9961 22.3679 23.0039C22.657 23.0117 22.9089 22.9531 23.1238 22.8281C23.3386 22.7031 23.5183 22.5352 23.6628 22.3242C23.8073 22.1133 23.9226 21.8828 24.0085 21.6328C24.0945 21.3789 24.1511 21.1309 24.1784 20.8887L24.1902 20.7539C24.2136 20.543 24.2175 20.3184 24.2019 20.0801C24.1863 19.8379 24.1394 19.6113 24.0613 19.4004C23.9831 19.1855 23.862 19.0117 23.698 18.8789C23.5339 18.7422 23.3152 18.6699 23.0417 18.6621C22.7488 18.6543 22.4948 18.7148 22.28 18.8438C22.0652 18.9688 21.8855 19.1387 21.7409 19.3535C21.5964 19.5684 21.4812 19.8027 21.3952 20.0566C21.3132 20.3105 21.2566 20.5586 21.2253 20.8008ZM27.3608 22.5293L29.6049 17.6602H30.5307L30.0034 19.2012L27.7651 24H26.9389L27.3608 22.5293ZM27.3666 17.6602L27.6186 22.6992L27.478 24H26.6166L26.0541 17.6602H27.3666ZM30.9995 22.4883L32.892 17.6602H34.2748L31.5151 24H30.601L30.9995 22.4883ZM30.642 17.6602L31.2045 22.6172L31.1284 24H30.3725L29.7573 19.0605L29.7748 17.6602H30.642Z" fill="white"/>
<path d="M48.859 23.3301C49.2431 23.3366 49.5947 23.265 49.9137 23.1152C50.2327 22.9655 50.4964 22.7507 50.7047 22.4707C50.9195 22.1908 51.0693 21.8685 51.1539 21.5039L53.3316 21.4941C53.247 22.2493 52.9801 22.9069 52.5309 23.4668C52.0882 24.0267 51.5348 24.4596 50.8707 24.7656C50.2132 25.0651 49.5165 25.2083 48.7809 25.1953C48.0322 25.1823 47.3909 25.0293 46.857 24.7363C46.3297 24.4434 45.9033 24.0495 45.5777 23.5547C45.2522 23.0599 45.0244 22.5 44.8941 21.875C44.7704 21.2435 44.7411 20.5892 44.8063 19.9121L44.8453 19.5605C44.9234 18.8379 45.096 18.1543 45.3629 17.5098C45.6363 16.8652 45.9977 16.2956 46.4469 15.8008C46.9026 15.2995 47.4397 14.9089 48.0582 14.6289C48.6767 14.349 49.3733 14.2188 50.148 14.2383C50.9293 14.2513 51.6031 14.4303 52.1695 14.7754C52.7359 15.1204 53.1689 15.5924 53.4684 16.1914C53.7678 16.7839 53.9143 17.4609 53.9078 18.2227L51.7496 18.2129C51.7496 17.8483 51.6878 17.5098 51.5641 17.1973C51.4469 16.8783 51.2581 16.6211 50.9977 16.4258C50.7438 16.224 50.4117 16.1165 50.0016 16.1035C49.5198 16.0905 49.1064 16.1849 48.7613 16.3867C48.4228 16.5885 48.1396 16.862 47.9117 17.207C47.6904 17.5521 47.5146 17.9329 47.3844 18.3496C47.2607 18.7598 47.176 19.1667 47.1305 19.5703L47.0914 19.9121C47.0589 20.2572 47.0458 20.6283 47.0523 21.0254C47.0654 21.416 47.1272 21.7839 47.2379 22.1289C47.3486 22.474 47.5309 22.7572 47.7848 22.9785C48.0452 23.1999 48.4033 23.3171 48.859 23.3301ZM53.743 19.8926L53.7723 19.668C53.8504 18.9388 54.0294 18.2454 54.3094 17.5879C54.5893 16.9303 54.9604 16.3477 55.4227 15.8398C55.8914 15.3255 56.4415 14.9251 57.073 14.6387C57.7111 14.3522 58.4207 14.2188 59.202 14.2383C59.9572 14.2513 60.6049 14.4076 61.1453 14.707C61.6922 15.0065 62.1349 15.4069 62.4734 15.9082C62.8185 16.403 63.0594 16.9694 63.1961 17.6074C63.3328 18.2389 63.3686 18.8997 63.3035 19.5898L63.284 19.8145C63.1994 20.5436 63.0138 21.2337 62.7273 21.8848C62.4474 22.5358 62.073 23.1152 61.6043 23.623C61.1421 24.1243 60.5919 24.5182 59.9539 24.8047C59.3224 25.0846 58.6193 25.2148 57.8445 25.1953C57.0958 25.1823 56.448 25.0293 55.9012 24.7363C55.3608 24.4368 54.9181 24.0397 54.573 23.5449C54.2345 23.0501 53.9969 22.4902 53.8602 21.8652C53.7234 21.2337 53.6844 20.5762 53.743 19.8926ZM56.0574 19.668L56.0379 19.8926C56.0053 20.2507 56.0021 20.6283 56.0281 21.0254C56.0542 21.4225 56.1323 21.7936 56.2625 22.1387C56.3927 22.4837 56.5945 22.7669 56.868 22.9883C57.1414 23.2096 57.506 23.3268 57.9617 23.3398C58.4435 23.3529 58.8634 23.2552 59.2215 23.0469C59.5796 22.8385 59.879 22.5586 60.1199 22.207C60.3608 21.8555 60.5529 21.4714 60.6961 21.0547C60.8393 20.6315 60.9337 20.2181 60.9793 19.8145L60.9988 19.5898C61.0379 19.2383 61.0444 18.8639 61.0184 18.4668C60.9923 18.0632 60.9142 17.6855 60.784 17.334C60.6538 16.9759 60.452 16.6862 60.1785 16.4648C59.9051 16.237 59.5405 16.1165 59.0848 16.1035C58.5965 16.0905 58.1733 16.1914 57.8152 16.4062C57.4572 16.6146 57.1577 16.8978 56.9168 17.2559C56.6759 17.6139 56.4839 18.0046 56.3406 18.4277C56.2039 18.8509 56.1095 19.2643 56.0574 19.668ZM66.8105 16.7188L65.375 25H63.0703L64.9063 14.4336H67.0742L66.8105 16.7188ZM66.0195 19.3262H65.2578C65.3359 18.6816 65.4857 18.0534 65.707 17.4414C65.9349 16.8229 66.2409 16.2695 66.625 15.7812C67.0091 15.293 67.4779 14.9089 68.0313 14.6289C68.5846 14.349 69.2259 14.2188 69.9551 14.2383C70.4954 14.2513 70.9479 14.3587 71.3125 14.5605C71.6836 14.7624 71.9798 15.0358 72.2012 15.3809C72.4225 15.7259 72.569 16.1198 72.6406 16.5625C72.7122 16.9987 72.7253 17.4642 72.6797 17.959L71.5078 25H69.2031L70.3555 18.1543C70.401 17.7767 70.388 17.4382 70.3164 17.1387C70.2448 16.8327 70.0951 16.5885 69.8672 16.4062C69.6458 16.224 69.3268 16.1263 68.9102 16.1133C68.4479 16.1003 68.0475 16.1849 67.709 16.3672C67.3704 16.5495 67.0872 16.7969 66.8594 17.1094C66.638 17.4219 66.4557 17.7734 66.3125 18.1641C66.1758 18.5482 66.0781 18.9355 66.0195 19.3262ZM72.4844 18.7012L71.3711 18.9453C71.4427 18.3333 71.5924 17.7441 71.8203 17.1777C72.0547 16.6048 72.3639 16.097 72.748 15.6543C73.1387 15.2051 73.6009 14.8535 74.1348 14.5996C74.6686 14.3392 75.2741 14.2155 75.9512 14.2285C76.5241 14.2415 77.0059 14.3555 77.3965 14.5703C77.7871 14.7786 78.0931 15.0651 78.3145 15.4297C78.5423 15.7943 78.6921 16.2109 78.7637 16.6797C78.8353 17.1419 78.8418 17.6367 78.7832 18.1641L77.6406 25H75.3359L76.4883 18.1445C76.5339 17.7604 76.5208 17.4186 76.4492 17.1191C76.3841 16.8132 76.2409 16.5723 76.0195 16.3965C75.7982 16.2207 75.4759 16.1296 75.0527 16.123C74.6751 16.11 74.3366 16.1751 74.0371 16.3184C73.7441 16.4551 73.4902 16.6471 73.2754 16.8945C73.0671 17.1354 72.8978 17.4121 72.7676 17.7246C72.6374 18.0371 72.543 18.3626 72.4844 18.7012ZM82.5637 16.6016L80.3957 29.0625H78.091L80.6301 14.4336H82.7492L82.5637 16.6016ZM88.6965 19.5605L88.677 19.7656C88.5988 20.4036 88.4458 21.0482 88.218 21.6992C87.9966 22.3438 87.6939 22.9362 87.3098 23.4766C86.9322 24.0104 86.4667 24.4368 85.9133 24.7559C85.3599 25.0749 84.7089 25.2246 83.9602 25.2051C83.3026 25.1921 82.7492 25.0358 82.3 24.7363C81.8508 24.4303 81.4927 24.0332 81.2258 23.5449C80.9589 23.0566 80.7701 22.5228 80.6594 21.9434C80.5552 21.3574 80.5161 20.778 80.5422 20.2051L80.6398 19.4238C80.744 18.8053 80.9198 18.1868 81.1672 17.5684C81.4211 16.9499 81.7466 16.3867 82.1438 15.8789C82.5409 15.3646 83.0129 14.9577 83.5598 14.6582C84.1066 14.3587 84.7349 14.2188 85.4445 14.2383C86.1672 14.2578 86.7564 14.4303 87.2121 14.7559C87.6678 15.0814 88.0129 15.5046 88.2473 16.0254C88.4882 16.5462 88.6379 17.1159 88.6965 17.7344C88.7616 18.3529 88.7616 18.9616 88.6965 19.5605ZM86.3723 19.7559L86.4016 19.541C86.4341 19.209 86.4439 18.8477 86.4309 18.457C86.4244 18.0664 86.369 17.6986 86.2648 17.3535C86.1607 17.002 85.9816 16.7122 85.7277 16.4844C85.4803 16.2565 85.1353 16.1361 84.6926 16.123C84.2889 16.1035 83.9244 16.1686 83.5988 16.3184C83.2733 16.4616 82.9869 16.6634 82.7395 16.9238C82.4921 17.1842 82.2837 17.4805 82.1145 17.8125C81.9517 18.1445 81.8345 18.4896 81.7629 18.8477L81.4602 20.7617C81.4406 21.1914 81.4992 21.6016 81.6359 21.9922C81.7792 22.3763 82.0005 22.6921 82.3 22.9395C82.606 23.1868 82.9934 23.3171 83.4621 23.3301C83.9439 23.3431 84.3573 23.2422 84.7023 23.0273C85.0474 22.8125 85.3339 22.526 85.5617 22.168C85.7896 21.8034 85.9686 21.4095 86.0988 20.9863C86.2355 20.5566 86.3267 20.1465 86.3723 19.7559ZM88.9906 19.8926L89.0199 19.668C89.098 18.9388 89.2771 18.2454 89.557 17.5879C89.837 16.9303 90.2081 16.3477 90.6703 15.8398C91.1391 15.3255 91.6892 14.9251 92.3207 14.6387C92.9587 14.3522 93.6684 14.2188 94.4496 14.2383C95.2048 14.2513 95.8526 14.4076 96.393 14.707C96.9398 15.0065 97.3826 15.4069 97.7211 15.9082C98.0661 16.403 98.307 16.9694 98.4438 17.6074C98.5805 18.2389 98.6163 18.8997 98.5512 19.5898L98.5316 19.8145C98.447 20.5436 98.2615 21.2337 97.975 21.8848C97.6951 22.5358 97.3207 23.1152 96.852 23.623C96.3897 24.1243 95.8396 24.5182 95.2016 24.8047C94.5701 25.0846 93.8669 25.2148 93.0922 25.1953C92.3435 25.1823 91.6957 25.0293 91.1488 24.7363C90.6085 24.4368 90.1658 24.0397 89.8207 23.5449C89.4822 23.0501 89.2445 22.4902 89.1078 21.8652C88.9711 21.2337 88.932 20.5762 88.9906 19.8926ZM91.3051 19.668L91.2855 19.8926C91.253 20.2507 91.2497 20.6283 91.2758 21.0254C91.3018 21.4225 91.38 21.7936 91.5102 22.1387C91.6404 22.4837 91.8422 22.7669 92.1156 22.9883C92.3891 23.2096 92.7536 23.3268 93.2094 23.3398C93.6911 23.3529 94.1111 23.2552 94.4691 23.0469C94.8272 22.8385 95.1267 22.5586 95.3676 22.207C95.6085 21.8555 95.8005 21.4714 95.9438 21.0547C96.087 20.6315 96.1814 20.2181 96.227 19.8145L96.2465 19.5898C96.2855 19.2383 96.2921 18.8639 96.266 18.4668C96.24 18.0632 96.1619 17.6855 96.0316 17.334C95.9014 16.9759 95.6996 16.6862 95.4262 16.4648C95.1527 16.237 94.7882 16.1165 94.3324 16.1035C93.8441 16.0905 93.421 16.1914 93.0629 16.4062C92.7048 16.6146 92.4053 16.8978 92.1645 17.2559C91.9236 17.6139 91.7315 18.0046 91.5883 18.4277C91.4516 18.8509 91.3572 19.2643 91.3051 19.668ZM102.019 16.8262L100.603 25H98.2984L100.134 14.4336H102.293L102.019 16.8262ZM101.209 19.3262L100.505 19.3359C100.584 18.7044 100.737 18.0827 100.964 17.4707C101.199 16.8522 101.508 16.2988 101.892 15.8105C102.276 15.3158 102.742 14.9251 103.289 14.6387C103.842 14.3522 104.48 14.2188 105.203 14.2383C105.776 14.2513 106.251 14.3652 106.629 14.5801C107.013 14.7949 107.309 15.0846 107.517 15.4492C107.732 15.8138 107.872 16.2305 107.937 16.6992C108.002 17.168 108.005 17.6595 107.947 18.1738L106.814 25H104.5L105.652 18.1445C105.691 17.7669 105.678 17.4284 105.613 17.1289C105.548 16.8229 105.405 16.582 105.183 16.4062C104.962 16.224 104.643 16.1296 104.226 16.123C103.77 16.11 103.37 16.1947 103.025 16.377C102.68 16.5592 102.384 16.8099 102.136 17.1289C101.889 17.4414 101.687 17.7897 101.531 18.1738C101.381 18.5579 101.274 18.9421 101.209 19.3262ZM112.675 25.1953C111.952 25.1823 111.311 25.0423 110.751 24.7754C110.197 24.502 109.738 24.1341 109.374 23.6719C109.009 23.2031 108.746 22.666 108.583 22.0605C108.42 21.4486 108.365 20.7975 108.417 20.1074L108.456 19.707C108.527 18.9974 108.7 18.3138 108.973 17.6562C109.247 16.9922 109.611 16.403 110.067 15.8887C110.529 15.3678 111.073 14.9577 111.698 14.6582C112.323 14.3587 113.02 14.2188 113.788 14.2383C114.524 14.2513 115.145 14.4043 115.653 14.6973C116.161 14.9902 116.565 15.3809 116.864 15.8691C117.164 16.3509 117.362 16.8978 117.46 17.5098C117.564 18.1217 117.58 18.7565 117.509 19.4141L117.372 20.4199H109.442L109.716 18.7305L115.311 18.7402L115.35 18.5352C115.409 18.125 115.386 17.7376 115.282 17.373C115.184 17.0085 115.002 16.709 114.735 16.4746C114.468 16.2402 114.11 16.1165 113.661 16.1035C113.173 16.0905 112.753 16.1914 112.401 16.4062C112.056 16.6211 111.77 16.9108 111.542 17.2754C111.314 17.64 111.135 18.0371 111.005 18.4668C110.881 18.89 110.793 19.3034 110.741 19.707L110.702 20.0977C110.663 20.4818 110.673 20.8626 110.731 21.2402C110.79 21.6178 110.904 21.9629 111.073 22.2754C111.242 22.5814 111.477 22.832 111.776 23.0273C112.076 23.2161 112.447 23.3171 112.889 23.3301C113.443 23.3431 113.944 23.2292 114.393 22.9883C114.849 22.7409 115.263 22.4219 115.634 22.0312L116.766 23.2324C116.467 23.6816 116.096 24.0527 115.653 24.3457C115.217 24.6387 114.742 24.8568 114.227 25C113.72 25.1367 113.202 25.2018 112.675 25.1953ZM120.811 16.8262L119.395 25H117.09L118.926 14.4336H121.084L120.811 16.8262ZM120 19.3262L119.297 19.3359C119.375 18.7044 119.528 18.0827 119.756 17.4707C119.99 16.8522 120.299 16.2988 120.684 15.8105C121.068 15.3158 121.533 14.9251 122.08 14.6387C122.633 14.3522 123.271 14.2188 123.994 14.2383C124.567 14.2513 125.042 14.3652 125.42 14.5801C125.804 14.7949 126.1 15.0846 126.309 15.4492C126.523 15.8138 126.663 16.2305 126.729 16.6992C126.794 17.168 126.797 17.6595 126.738 18.1738L125.605 25H123.291L124.443 18.1445C124.482 17.7669 124.469 17.4284 124.404 17.1289C124.339 16.8229 124.196 16.582 123.975 16.4062C123.753 16.224 123.434 16.1296 123.018 16.123C122.562 16.11 122.161 16.1947 121.816 16.377C121.471 16.5592 121.175 16.8099 120.928 17.1289C120.68 17.4414 120.479 17.7897 120.322 18.1738C120.173 18.5579 120.065 18.9421 120 19.3262ZM133.263 14.4336L132.96 16.1523H127.179L127.472 14.4336H133.263ZM129.591 11.8457H131.886L130.138 22.0996C130.112 22.3275 130.112 22.526 130.138 22.6953C130.17 22.8646 130.245 22.998 130.363 23.0957C130.486 23.1868 130.675 23.2357 130.929 23.2422C131.066 23.2487 131.202 23.2422 131.339 23.2227C131.482 23.2031 131.626 23.1836 131.769 23.1641L131.603 24.9805C131.368 25.0521 131.127 25.1042 130.88 25.1367C130.639 25.1693 130.395 25.1823 130.148 25.1758C129.562 25.1693 129.09 25.0358 128.732 24.7754C128.374 24.5085 128.123 24.1536 127.98 23.7109C127.836 23.2682 127.791 22.7734 127.843 22.2266L129.591 11.8457ZM138.303 22.0801C138.355 21.722 138.277 21.4453 138.069 21.25C137.86 21.0482 137.6 20.8952 137.287 20.791C136.975 20.6868 136.689 20.6022 136.428 20.5371C136.031 20.4395 135.634 20.3158 135.237 20.166C134.846 20.0098 134.488 19.8145 134.162 19.5801C133.837 19.3457 133.58 19.0592 133.391 18.7207C133.202 18.3757 133.118 17.9655 133.137 17.4902C133.163 16.9434 133.306 16.4648 133.567 16.0547C133.827 15.6445 134.162 15.3027 134.573 15.0293C134.989 14.7559 135.445 14.554 135.94 14.4238C136.435 14.2936 136.926 14.2318 137.414 14.2383C138.098 14.2513 138.726 14.3848 139.299 14.6387C139.879 14.8926 140.341 15.2669 140.686 15.7617C141.037 16.2565 141.21 16.8685 141.204 17.5977L138.918 17.5879C138.931 17.2624 138.873 16.9824 138.743 16.748C138.619 16.5072 138.437 16.3216 138.196 16.1914C137.955 16.0612 137.665 15.9928 137.327 15.9863C137.034 15.9798 136.744 16.0286 136.457 16.1328C136.177 16.237 135.937 16.3932 135.735 16.6016C135.533 16.8099 135.409 17.0736 135.364 17.3926C135.325 17.64 135.36 17.8451 135.471 18.0078C135.582 18.1641 135.735 18.291 135.93 18.3887C136.125 18.4863 136.33 18.5677 136.545 18.6328C136.767 18.6914 136.965 18.7402 137.141 18.7793C137.694 18.929 138.238 19.1211 138.772 19.3555C139.306 19.5833 139.742 19.9056 140.08 20.3223C140.419 20.7324 140.572 21.2728 140.539 21.9434C140.52 22.5163 140.37 23.0111 140.09 23.4277C139.81 23.8379 139.452 24.1764 139.016 24.4434C138.58 24.7038 138.101 24.8958 137.58 25.0195C137.066 25.1432 136.558 25.2018 136.057 25.1953C135.367 25.1823 134.716 25.0391 134.104 24.7656C133.498 24.4922 133.01 24.0983 132.639 23.584C132.274 23.0632 132.092 22.4284 132.092 21.6797L134.309 21.6895C134.309 22.0671 134.384 22.3861 134.534 22.6465C134.69 22.9069 134.905 23.1055 135.178 23.2422C135.458 23.3724 135.784 23.4408 136.155 23.4473C136.461 23.4473 136.767 23.4049 137.073 23.3203C137.385 23.2292 137.652 23.0827 137.873 22.8809C138.101 22.679 138.245 22.4121 138.303 22.0801Z" fill="black"/>
</svg>
