<svg width="117" height="40" viewBox="0 0 117 40" fill="none" xmlns="http://www.w3.org/2000/svg">
<rect width="40" height="40" rx="20" fill="#FF528C"/>
<path d="M9.065 15L7.50055 24H6.11773L7.68219 15H9.065ZM12.4752 17.6602L9.29352 20.6953L7.49469 22.2949L7.33063 21.0059L8.64313 19.6348L10.7056 17.6602H12.4752ZM9.99664 24L8.48492 20.9648L9.4693 20.0273L11.5142 24H9.99664ZM14.0345 17.6602L12.9329 24H11.5559L12.6575 17.6602H14.0345ZM12.8509 16.0195C12.847 15.793 12.9212 15.6074 13.0735 15.4629C13.2259 15.3184 13.4134 15.2441 13.636 15.2402C13.8509 15.2363 14.0345 15.3027 14.1868 15.4395C14.343 15.5723 14.4212 15.75 14.4212 15.9727C14.4251 16.1992 14.3489 16.3828 14.1927 16.5234C14.0403 16.6641 13.8548 16.7363 13.636 16.7402C13.4212 16.7441 13.2376 16.6816 13.0852 16.5527C12.9329 16.4199 12.8548 16.2422 12.8509 16.0195ZM17.6973 22.6055L19.0156 15H20.4043L18.8398 24H17.5977L17.6973 22.6055ZM13.9941 20.9473L14.0059 20.8242C14.0566 20.4336 14.1484 20.043 14.2813 19.6523C14.418 19.2617 14.6016 18.9043 14.832 18.5801C15.0664 18.2559 15.3516 17.998 15.6875 17.8066C16.0273 17.6152 16.4258 17.5254 16.8828 17.5371C17.2813 17.5488 17.6133 17.6523 17.8789 17.8477C18.1445 18.043 18.3516 18.2949 18.5 18.6035C18.6523 18.9121 18.7559 19.2461 18.8105 19.6055C18.8652 19.9609 18.8828 20.3086 18.8633 20.6484L18.8164 21.0469C18.7539 21.4062 18.6484 21.7695 18.5 22.1367C18.3516 22.5039 18.1582 22.8398 17.9199 23.1445C17.6855 23.4492 17.4043 23.6914 17.0762 23.8711C16.752 24.0508 16.3809 24.1348 15.9629 24.123C15.5449 24.1074 15.1992 24.002 14.9258 23.8066C14.6523 23.6074 14.4414 23.3516 14.293 23.0391C14.1445 22.7227 14.0488 22.3828 14.0059 22.0195C13.9629 21.6523 13.959 21.2949 13.9941 20.9473ZM15.4004 20.8125L15.3887 20.9355C15.3652 21.1387 15.3555 21.3555 15.3594 21.5859C15.3633 21.8164 15.3945 22.0371 15.4531 22.248C15.5156 22.4551 15.6191 22.627 15.7637 22.7637C15.9121 22.9004 16.1191 22.9746 16.3848 22.9863C16.6934 22.998 16.9668 22.9277 17.2051 22.7754C17.4473 22.623 17.6484 22.4238 17.8086 22.1777C17.9688 21.9316 18.082 21.6699 18.1484 21.3926L18.3125 20.3203C18.3242 20.125 18.3105 19.9316 18.2715 19.7402C18.2363 19.5488 18.1719 19.375 18.0781 19.2188C17.9844 19.0625 17.8594 18.9355 17.7031 18.8379C17.5508 18.7363 17.3652 18.6836 17.1465 18.6797C16.8574 18.668 16.6074 18.7266 16.3965 18.8555C16.1895 18.9844 16.0176 19.1562 15.8809 19.3711C15.748 19.5859 15.6426 19.8203 15.5645 20.0742C15.4863 20.3281 15.4316 20.5742 15.4004 20.8125ZM19.8366 20.9355L19.8542 20.8008C19.9011 20.3633 20.0085 19.9473 20.1765 19.5527C20.3445 19.1582 20.5671 18.8086 20.8445 18.5039C21.1257 18.1953 21.4558 17.9551 21.8347 17.7832C22.2175 17.6113 22.6433 17.5312 23.112 17.543C23.5652 17.5508 23.9538 17.6445 24.278 17.8242C24.6062 18.0039 24.8718 18.2441 25.0749 18.5449C25.282 18.8418 25.4265 19.1816 25.5085 19.5645C25.5905 19.9434 25.612 20.3398 25.573 20.7539L25.5613 20.8887C25.5105 21.3262 25.3991 21.7402 25.2273 22.1309C25.0593 22.5215 24.8347 22.8691 24.5534 23.1738C24.2761 23.4746 23.946 23.7109 23.5632 23.8828C23.1843 24.0508 22.7624 24.1289 22.2976 24.1172C21.8484 24.1094 21.4597 24.0176 21.1316 23.8418C20.8073 23.6621 20.5417 23.4238 20.3347 23.127C20.1316 22.8301 19.989 22.4941 19.907 22.1191C19.8249 21.7402 19.8015 21.3457 19.8366 20.9355ZM21.2253 20.8008L21.2136 20.9355C21.1941 21.1504 21.1921 21.377 21.2077 21.6152C21.2234 21.8535 21.2702 22.0762 21.3484 22.2832C21.4265 22.4902 21.5476 22.6602 21.7116 22.793C21.8757 22.9258 22.0945 22.9961 22.3679 23.0039C22.657 23.0117 22.9089 22.9531 23.1238 22.8281C23.3386 22.7031 23.5183 22.5352 23.6628 22.3242C23.8073 22.1133 23.9226 21.8828 24.0085 21.6328C24.0945 21.3789 24.1511 21.1309 24.1784 20.8887L24.1902 20.7539C24.2136 20.543 24.2175 20.3184 24.2019 20.0801C24.1863 19.8379 24.1394 19.6113 24.0613 19.4004C23.9831 19.1855 23.862 19.0117 23.698 18.8789C23.5339 18.7422 23.3152 18.6699 23.0417 18.6621C22.7488 18.6543 22.4948 18.7148 22.28 18.8438C22.0652 18.9688 21.8855 19.1387 21.7409 19.3535C21.5964 19.5684 21.4812 19.8027 21.3952 20.0566C21.3132 20.3105 21.2566 20.5586 21.2253 20.8008ZM27.3608 22.5293L29.6049 17.6602H30.5307L30.0034 19.2012L27.7651 24H26.9389L27.3608 22.5293ZM27.3666 17.6602L27.6186 22.6992L27.478 24H26.6166L26.0541 17.6602H27.3666ZM30.9995 22.4883L32.892 17.6602H34.2748L31.5151 24H30.601L30.9995 22.4883ZM30.642 17.6602L31.2045 22.6172L31.1284 24H30.3725L29.7573 19.0605L29.7748 17.6602H30.642Z" fill="white"/>
<path d="M46.8942 23.7476C47.1823 23.7524 47.446 23.6987 47.6853 23.5864C47.9245 23.4741 48.1223 23.313 48.2785 23.103C48.4396 22.8931 48.552 22.6514 48.6154 22.3779L50.2487 22.3706C50.1853 22.937 49.9851 23.4302 49.6481 23.8501C49.3161 24.27 48.9011 24.5947 48.403 24.8242C47.9099 25.0488 47.3874 25.1562 46.8356 25.1465C46.2741 25.1367 45.7932 25.022 45.3928 24.8022C44.9973 24.5825 44.6774 24.2871 44.4333 23.916C44.1892 23.5449 44.0183 23.125 43.9206 22.6562C43.8278 22.1826 43.8059 21.6919 43.8547 21.1841L43.884 20.9204C43.9426 20.3784 44.072 19.8657 44.2722 19.3823C44.4772 18.8989 44.7482 18.4717 45.0852 18.1006C45.427 17.7246 45.8298 17.4316 46.2937 17.2217C46.7575 17.0117 47.28 16.9141 47.861 16.9287C48.447 16.9385 48.9523 17.0728 49.3771 17.3315C49.802 17.5903 50.1267 17.9443 50.3513 18.3936C50.5759 18.8379 50.6857 19.3457 50.6809 19.917L49.0622 19.9097C49.0622 19.6362 49.0158 19.3823 48.923 19.1479C48.8352 18.9087 48.6936 18.7158 48.4982 18.5693C48.3078 18.418 48.0588 18.3374 47.7512 18.3276C47.3898 18.3179 47.0798 18.3887 46.821 18.54C46.5671 18.6914 46.3547 18.8965 46.1838 19.1553C46.0178 19.4141 45.8859 19.6997 45.7883 20.0122C45.6955 20.3198 45.632 20.625 45.5979 20.9277L45.5686 21.1841C45.5441 21.4429 45.5344 21.7212 45.5393 22.019C45.549 22.312 45.5954 22.5879 45.6784 22.8467C45.7614 23.1055 45.8981 23.3179 46.0886 23.4839C46.2839 23.6499 46.5524 23.7378 46.8942 23.7476ZM50.5572 21.1694L50.5792 21.001C50.6378 20.4541 50.7721 19.9341 50.982 19.4409C51.192 18.9478 51.4703 18.5107 51.817 18.1299C52.1686 17.7441 52.5812 17.4438 53.0548 17.229C53.5333 17.0142 54.0655 16.9141 54.6515 16.9287C55.2179 16.9385 55.7037 17.0557 56.109 17.2803C56.5191 17.5049 56.8512 17.8052 57.1051 18.1812C57.3639 18.5522 57.5445 18.9771 57.6471 19.4556C57.7496 19.9292 57.7765 20.4248 57.7276 20.9424L57.713 21.1108C57.6495 21.6577 57.5104 22.1753 57.2955 22.6636C57.0855 23.1519 56.8048 23.5864 56.4532 23.9673C56.1065 24.3433 55.6939 24.6387 55.2154 24.8535C54.7418 25.0635 54.2145 25.1611 53.6334 25.1465C53.0719 25.1367 52.586 25.022 52.1759 24.8022C51.7706 24.5776 51.4386 24.2798 51.1798 23.9087C50.9259 23.5376 50.7477 23.1177 50.6451 22.6489C50.5426 22.1753 50.5133 21.6821 50.5572 21.1694ZM52.2931 21.001L52.2784 21.1694C52.254 21.438 52.2516 21.7212 52.2711 22.019C52.2906 22.3169 52.3492 22.5952 52.4469 22.854C52.5445 23.1128 52.6959 23.3252 52.901 23.4912C53.1061 23.6572 53.3795 23.7451 53.7213 23.7549C54.0826 23.7646 54.3976 23.6914 54.6661 23.5352C54.9347 23.3789 55.1593 23.1689 55.3399 22.9053C55.5206 22.6416 55.6646 22.3535 55.7721 22.041C55.8795 21.7236 55.9503 21.4136 55.9845 21.1108L55.9991 20.9424C56.0284 20.6787 56.0333 20.3979 56.0138 20.1001C55.9942 19.7974 55.9356 19.5142 55.838 19.2505C55.7403 18.9819 55.589 18.7646 55.3839 18.5986C55.1788 18.4277 54.9054 18.3374 54.5636 18.3276C54.1974 18.3179 53.88 18.3936 53.6114 18.5547C53.3429 18.7109 53.1183 18.9233 52.9376 19.1919C52.7569 19.4604 52.6129 19.7534 52.5055 20.0708C52.4029 20.3882 52.3321 20.6982 52.2931 21.001ZM60.3579 18.7891L59.2812 25H57.5527L58.9297 17.0752H60.5557L60.3579 18.7891ZM59.7646 20.7446H59.1934C59.252 20.2612 59.3643 19.79 59.5303 19.3311C59.7012 18.8672 59.9307 18.4521 60.2187 18.0859C60.5068 17.7197 60.8584 17.4316 61.2734 17.2217C61.6885 17.0117 62.1694 16.9141 62.7163 16.9287C63.1216 16.9385 63.4609 17.019 63.7344 17.1704C64.0127 17.3218 64.2349 17.5269 64.4009 17.7856C64.5669 18.0444 64.6768 18.3398 64.7305 18.6719C64.7842 18.999 64.7939 19.3481 64.7598 19.7192L63.8809 25H62.1523L63.0166 19.8657C63.0508 19.5825 63.041 19.3286 62.9873 19.104C62.9336 18.8745 62.8213 18.6914 62.6504 18.5547C62.4844 18.418 62.2451 18.3447 61.9326 18.335C61.5859 18.3252 61.2856 18.3887 61.0317 18.5254C60.7778 18.6621 60.5654 18.8477 60.3945 19.082C60.2285 19.3164 60.0918 19.5801 59.9844 19.873C59.8818 20.1611 59.8086 20.4517 59.7646 20.7446ZM64.6133 20.2759L63.7783 20.459C63.832 20 63.9443 19.5581 64.1152 19.1333C64.291 18.7036 64.5229 18.3228 64.811 17.9907C65.104 17.6538 65.4507 17.3901 65.8511 17.1997C66.2515 17.0044 66.7056 16.9116 67.2134 16.9214C67.6431 16.9312 68.0044 17.0166 68.2974 17.1777C68.5903 17.334 68.8198 17.5488 68.9858 17.8223C69.1567 18.0957 69.269 18.4082 69.3228 18.7598C69.3765 19.1064 69.3813 19.4775 69.3374 19.873L68.4805 25H66.752L67.6162 19.8584C67.6504 19.5703 67.6406 19.314 67.5869 19.0894C67.5381 18.8599 67.4307 18.6792 67.2646 18.5474C67.0986 18.4155 66.8569 18.3472 66.5395 18.3423C66.2563 18.3325 66.0024 18.3813 65.7778 18.4888C65.5581 18.5913 65.3677 18.7354 65.2065 18.9209C65.0503 19.1016 64.9233 19.3091 64.8257 19.5435C64.728 19.7778 64.6572 20.022 64.6133 20.2759ZM72.1728 18.7012L70.5468 28.0469H68.8183L70.7226 17.0752H72.3119L72.1728 18.7012ZM76.7724 20.9204L76.7577 21.0742C76.6991 21.5527 76.5844 22.0361 76.4135 22.5244C76.2475 23.0078 76.0204 23.4521 75.7323 23.8574C75.4491 24.2578 75.1 24.5776 74.685 24.8169C74.2699 25.0562 73.7816 25.1685 73.2201 25.1538C72.727 25.144 72.3119 25.0269 71.975 24.8022C71.6381 24.5728 71.3695 24.2749 71.1693 23.9087C70.9691 23.5425 70.8275 23.1421 70.7445 22.7075C70.6664 22.2681 70.6371 21.8335 70.6566 21.4038L70.7299 20.8179C70.808 20.354 70.9398 19.8901 71.1254 19.4263C71.3158 18.9624 71.56 18.54 71.8578 18.1592C72.1557 17.7734 72.5097 17.4683 72.9198 17.2437C73.33 17.019 73.8012 16.9141 74.3334 16.9287C74.8754 16.9434 75.3173 17.0728 75.6591 17.3169C76.0009 17.561 76.2597 17.8784 76.4354 18.269C76.6161 18.6597 76.7284 19.0869 76.7724 19.5508C76.8212 20.0146 76.8212 20.4712 76.7724 20.9204ZM75.0292 21.0669L75.0512 20.9058C75.0756 20.6567 75.0829 20.3857 75.0731 20.0928C75.0683 19.7998 75.0268 19.5239 74.9486 19.2651C74.8705 19.0015 74.7362 18.7842 74.5458 18.6133C74.3603 18.4424 74.1015 18.3521 73.7694 18.3423C73.4667 18.3276 73.1933 18.3765 72.9491 18.4888C72.705 18.5962 72.4901 18.7476 72.3046 18.9429C72.119 19.1382 71.9628 19.3604 71.8358 19.6094C71.7138 19.8584 71.6259 20.1172 71.5722 20.3857L71.3451 21.8213C71.3305 22.1436 71.3744 22.4512 71.477 22.7441C71.5844 23.0322 71.7504 23.269 71.975 23.4546C72.2045 23.6401 72.495 23.7378 72.8466 23.7476C73.2079 23.7573 73.518 23.6816 73.7768 23.5205C74.0355 23.3594 74.2504 23.1445 74.4213 22.876C74.5922 22.6025 74.7265 22.3071 74.8241 21.9897C74.9267 21.6675 74.995 21.3599 75.0292 21.0669ZM76.993 21.1694L77.0149 21.001C77.0735 20.4541 77.2078 19.9341 77.4178 19.4409C77.6277 18.9478 77.9061 18.5107 78.2527 18.1299C78.6043 17.7441 79.0169 17.4438 79.4905 17.229C79.969 17.0142 80.5013 16.9141 81.0872 16.9287C81.6536 16.9385 82.1395 17.0557 82.5447 17.2803C82.9549 17.5049 83.2869 17.8052 83.5408 18.1812C83.7996 18.5522 83.9803 18.9771 84.0828 19.4556C84.1854 19.9292 84.2122 20.4248 84.1634 20.9424L84.1487 21.1108C84.0853 21.6577 83.9461 22.1753 83.7313 22.6636C83.5213 23.1519 83.2405 23.5864 82.889 23.9673C82.5423 24.3433 82.1297 24.6387 81.6512 24.8535C81.1775 25.0635 80.6502 25.1611 80.0691 25.1465C79.5076 25.1367 79.0218 25.022 78.6116 24.8022C78.2063 24.5776 77.8743 24.2798 77.6155 23.9087C77.3616 23.5376 77.1834 23.1177 77.0809 22.6489C76.9783 22.1753 76.949 21.6821 76.993 21.1694ZM78.7288 21.001L78.7142 21.1694C78.6897 21.438 78.6873 21.7212 78.7068 22.019C78.7264 22.3169 78.785 22.5952 78.8826 22.854C78.9803 23.1128 79.1316 23.3252 79.3367 23.4912C79.5418 23.6572 79.8152 23.7451 80.157 23.7549C80.5184 23.7646 80.8333 23.6914 81.1019 23.5352C81.3704 23.3789 81.595 23.1689 81.7757 22.9053C81.9563 22.6416 82.1004 22.3535 82.2078 22.041C82.3152 21.7236 82.386 21.4136 82.4202 21.1108L82.4349 20.9424C82.4642 20.6787 82.469 20.3979 82.4495 20.1001C82.43 19.7974 82.3714 19.5142 82.2737 19.2505C82.1761 18.9819 82.0247 18.7646 81.8196 18.5986C81.6146 18.4277 81.3411 18.3374 80.9993 18.3276C80.6331 18.3179 80.3157 18.3936 80.0472 18.5547C79.7786 18.7109 79.554 18.9233 79.3733 19.1919C79.1927 19.4604 79.0486 19.7534 78.9412 20.0708C78.8387 20.3882 78.7679 20.6982 78.7288 21.001ZM86.7644 18.8696L85.7023 25H83.9738L85.3508 17.0752H86.9694L86.7644 18.8696ZM86.1564 20.7446L85.6291 20.752C85.6877 20.2783 85.8024 19.812 85.9733 19.353C86.1491 18.8892 86.3811 18.4741 86.6691 18.1079C86.9572 17.7368 87.3063 17.4438 87.7165 17.229C88.1315 17.0142 88.6101 16.9141 89.1521 16.9287C89.5817 16.9385 89.9382 17.0239 90.2214 17.1851C90.5095 17.3462 90.7316 17.5635 90.8879 17.8369C91.049 18.1104 91.154 18.4229 91.2028 18.7744C91.2517 19.126 91.2541 19.4946 91.2102 19.8804L90.3605 25H88.6247L89.489 19.8584C89.5183 19.5752 89.5085 19.3213 89.4597 19.0967C89.4108 18.8672 89.3034 18.6865 89.1374 18.5547C88.9714 18.418 88.7321 18.3472 88.4196 18.3423C88.0778 18.3325 87.7775 18.396 87.5187 18.5327C87.26 18.6694 87.0378 18.8574 86.8522 19.0967C86.6667 19.3311 86.5153 19.5923 86.3981 19.8804C86.2858 20.1685 86.2053 20.4565 86.1564 20.7446ZM94.756 25.1465C94.214 25.1367 93.733 25.0317 93.3131 24.8315C92.898 24.6265 92.5538 24.3506 92.2804 24.0039C92.0069 23.6523 91.8092 23.2495 91.6871 22.7954C91.565 22.3364 91.5235 21.8481 91.5626 21.3306L91.5919 21.0303C91.6456 20.498 91.775 19.9854 91.9801 19.4922C92.1852 18.9941 92.4586 18.5522 92.8004 18.1665C93.1471 17.7759 93.5548 17.4683 94.0235 17.2437C94.4923 17.019 95.0147 16.9141 95.5909 16.9287C96.1427 16.9385 96.609 17.0532 96.9898 17.2729C97.3707 17.4927 97.6734 17.7856 97.898 18.1519C98.1227 18.5132 98.2716 18.9233 98.3448 19.3823C98.4229 19.8413 98.4352 20.3174 98.3814 20.8105L98.2789 21.5649H92.3316L92.5367 20.2979L96.7335 20.3052L96.7628 20.1514C96.8067 19.8438 96.7896 19.5532 96.7115 19.2798C96.6383 19.0063 96.5016 18.7817 96.3014 18.606C96.1012 18.4302 95.8326 18.3374 95.4957 18.3276C95.1295 18.3179 94.8145 18.3936 94.5509 18.5547C94.2921 18.7158 94.0772 18.9331 93.9063 19.2065C93.7354 19.48 93.6012 19.7778 93.5035 20.1001C93.4107 20.4175 93.3448 20.7275 93.3058 21.0303L93.2765 21.3232C93.2472 21.6113 93.2545 21.897 93.2984 22.1802C93.3424 22.4634 93.4278 22.7222 93.5548 22.9565C93.6817 23.186 93.8575 23.374 94.0821 23.5205C94.3067 23.6621 94.5851 23.7378 94.9171 23.7476C95.3321 23.7573 95.7081 23.6719 96.045 23.4912C96.3868 23.3057 96.6969 23.0664 96.9752 22.7734L97.8248 23.6743C97.6002 24.0112 97.3219 24.2896 96.9898 24.5093C96.6627 24.729 96.3062 24.8926 95.9205 25C95.5396 25.1025 95.1515 25.1514 94.756 25.1465ZM100.858 18.8696L99.7959 25H98.0674L99.4443 17.0752H101.063L100.858 18.8696ZM100.25 20.7446L99.7227 20.752C99.7812 20.2783 99.896 19.812 100.067 19.353C100.243 18.8892 100.475 18.4741 100.763 18.1079C101.051 17.7368 101.4 17.4438 101.81 17.229C102.225 17.0142 102.704 16.9141 103.246 16.9287C103.675 16.9385 104.032 17.0239 104.315 17.1851C104.603 17.3462 104.825 17.5635 104.981 17.8369C105.143 18.1104 105.248 18.4229 105.296 18.7744C105.345 19.126 105.348 19.4946 105.304 19.8804L104.454 25H102.718L103.583 19.8584C103.612 19.5752 103.602 19.3213 103.553 19.0967C103.504 18.8672 103.397 18.6865 103.231 18.5547C103.065 18.418 102.826 18.3472 102.513 18.3423C102.171 18.3325 101.871 18.396 101.612 18.5327C101.354 18.6694 101.131 18.8574 100.946 19.0967C100.76 19.3311 100.609 19.5923 100.492 19.8804C100.379 20.1685 100.299 20.4565 100.25 20.7446ZM110.197 17.0752L109.97 18.3643H105.634L105.854 17.0752H110.197ZM107.443 15.1343H109.164L107.853 22.8247C107.834 22.9956 107.834 23.1445 107.853 23.2715C107.878 23.3984 107.934 23.4985 108.022 23.5718C108.115 23.6401 108.256 23.6768 108.447 23.6816C108.549 23.6865 108.652 23.6816 108.754 23.667C108.862 23.6523 108.969 23.6377 109.077 23.623L108.952 24.9854C108.776 25.0391 108.596 25.0781 108.41 25.1025C108.229 25.127 108.046 25.1367 107.861 25.1318C107.421 25.127 107.067 25.0269 106.799 24.8315C106.53 24.6313 106.342 24.3652 106.235 24.0332C106.127 23.7012 106.093 23.3301 106.132 22.9199L107.443 15.1343ZM113.977 22.8101C114.016 22.5415 113.958 22.334 113.802 22.1875C113.645 22.0361 113.45 21.9214 113.216 21.8433C112.981 21.7651 112.766 21.7017 112.571 21.6528C112.273 21.5796 111.975 21.4868 111.678 21.3745C111.385 21.2573 111.116 21.1108 110.872 20.9351C110.628 20.7593 110.435 20.5444 110.293 20.2905C110.152 20.0317 110.088 19.7241 110.103 19.3677C110.122 18.9575 110.23 18.5986 110.425 18.291C110.62 17.9834 110.872 17.7271 111.179 17.522C111.492 17.3169 111.834 17.1655 112.205 17.0679C112.576 16.9702 112.945 16.9238 113.311 16.9287C113.824 16.9385 114.295 17.0386 114.724 17.229C115.159 17.4194 115.506 17.7002 115.764 18.0713C116.028 18.4424 116.158 18.9014 116.153 19.4482L114.439 19.4409C114.449 19.1968 114.405 18.9868 114.307 18.811C114.214 18.6304 114.077 18.4912 113.897 18.3936C113.716 18.2959 113.499 18.2446 113.245 18.2397C113.025 18.2349 112.808 18.2715 112.593 18.3496C112.383 18.4277 112.202 18.5449 112.051 18.7012C111.9 18.8574 111.807 19.0552 111.773 19.2944C111.743 19.48 111.77 19.6338 111.853 19.7559C111.936 19.873 112.051 19.9683 112.198 20.0415C112.344 20.1147 112.498 20.1758 112.659 20.2246C112.825 20.2686 112.974 20.3052 113.106 20.3345C113.521 20.4468 113.929 20.5908 114.329 20.7666C114.729 20.9375 115.056 21.1792 115.31 21.4917C115.564 21.7993 115.679 22.2046 115.655 22.7075C115.64 23.1372 115.528 23.5083 115.318 23.8208C115.108 24.1284 114.839 24.3823 114.512 24.5825C114.185 24.7778 113.826 24.9219 113.435 25.0146C113.05 25.1074 112.669 25.1514 112.293 25.1465C111.775 25.1367 111.287 25.0293 110.828 24.8242C110.374 24.6191 110.008 24.3237 109.729 23.938C109.456 23.5474 109.319 23.0713 109.319 22.5098L110.982 22.5171C110.982 22.8003 111.038 23.0396 111.15 23.2349C111.267 23.4302 111.429 23.5791 111.634 23.6816C111.844 23.7793 112.088 23.8306 112.366 23.8354C112.596 23.8354 112.825 23.8037 113.054 23.7402C113.289 23.6719 113.489 23.562 113.655 23.4106C113.826 23.2593 113.933 23.0591 113.977 22.8101Z" fill="black"/>
</svg>
